<svg xmlns="http://www.w3.org/2000/svg" xmlns:xlink="http://www.w3.org/1999/xlink" width="95.921" height="95.229" viewBox="0 0 95.921 95.229">
  <defs>
    <linearGradient id="linear-gradient" x1="0.504" y1="0.878" x2="-0.528" y2="-0.536" gradientUnits="objectBoundingBox">
      <stop offset="0" stop-color="#ebeff2"/>
      <stop offset="1" stop-color="#fff"/>
    </linearGradient>
  </defs>
  <g id="heartbeat-star-medical-logo-by-Vexels" transform="translate(-88.285 -320.695)">
    <g id="Groupe_1630" data-name="Groupe 1630" transform="translate(88.285 320.695)">
      <path id="Tracé_1482" data-name="Tracé 1482" d="M128.069,103.839H113.81a1.927,1.927,0,0,1-1.8-1.249l-1.93-5.1-4.973,25.184a1.938,1.938,0,0,1-1.9,1.553h-.045a1.94,1.94,0,0,1-1.846-1.658L96.971,92.138l-2.064,9.778a1.936,1.936,0,0,1-1.885,1.528H80.076a1.924,1.924,0,0,1,0-3.848H91.467l3.994-18.869A1.976,1.976,0,0,1,97.408,79.2a1.926,1.926,0,0,1,1.835,1.651l4.285,30.007,4.084-20.692a1.922,1.922,0,0,1,3.681-.309l3.837,10.13h14.892l13.918-8.207a1.964,1.964,0,0,0,.7-2.691L132.293,68.154a1.956,1.956,0,0,0-2.686-.692l-17.8,10.495V55.939a1.967,1.967,0,0,0-1.958-1.972h-24.3a1.97,1.97,0,0,0-1.958,1.972v21.8L66.2,67.542a1.962,1.962,0,0,0-2.685.7L51.215,89.2a1.978,1.978,0,0,0,.7,2.684l18.189,10.668L50.964,113.846a1.961,1.961,0,0,0-.691,2.683l12.338,20.934a1.953,1.953,0,0,0,2.691.686l18.287-10.783v19.865a1.966,1.966,0,0,0,1.958,1.965h24.3a1.962,1.962,0,0,0,1.958-1.965V127.018l18.858,11.059a1.962,1.962,0,0,0,2.691-.707l12.3-20.946a1.979,1.979,0,0,0-.7-2.69Z" transform="translate(-50 -53.967)" fill="url(#linear-gradient)"/>
    </g>
  </g>
</svg>
