<svg xmlns="http://www.w3.org/2000/svg" xmlns:xlink="http://www.w3.org/1999/xlink" width="328.366" height="269.89" viewBox="0 0 328.366 269.89">
  <defs>
    <linearGradient id="linear-gradient" x1="0.5" y1="1" x2="0.5" gradientUnits="objectBoundingBox">
      <stop offset="0" stop-color="gray" stop-opacity="0.251"/>
      <stop offset="0.54" stop-color="gray" stop-opacity="0.122"/>
      <stop offset="1" stop-color="gray" stop-opacity="0.102"/>
    </linearGradient>
    <linearGradient id="linear-gradient-2" x1="-2.497" y1="1" x2="-2.497" y2="0" xlink:href="#linear-gradient"/>
  </defs>
  <g id="Groupe_1632" data-name="Groupe 1632" transform="translate(-23.085 -96.11)">
    <g id="Groupe_148" data-name="Groupe 148" transform="translate(23.085 96.11)">
      <path id="Tracé_180" data-name="Tracé 180" d="M345.177,160.015c4.946,8.991,12.138,17.47,12.76,27.607,1,16.282-14.877,28.558-21.368,43.646-7.969,18.522-1.286,40.344-8.339,59.2-5.111,13.665-17.649,24.58-32.383,28.193-11.042,2.707-22.657,1.484-34.058,1.6-32.367.316-64.611,11.508-96.538,6.427-15.766-2.51-30.67-8.914-46.508-10.968-18.992-2.464-41.121.516-54.693-12.391-18.962-18.032-4.885-51.188-19.116-72.822-4.582-6.966-11.964-12.417-14.439-20.295C27.6,201,32.288,191.191,38.106,183.344s13.016-15.075,16.167-24.2c2.861-8.289,1.114-17.3-2.406-25.354-5.391-12.341,9.616-40.639,39.384-38.518,13.646.972,19.788-14.833,34.757-19.215,17.139-5.016,38.656-.983,51.285,3.214,12.832,4.265,28.693,6.506,36.049-4.39,10.384-15.384,41.342-17.792,55.244,7.191,5.078,9.126,9.6,16.226,20.406,15.529C347.559,93.823,337.825,146.652,345.177,160.015ZM185.538,75.605c0,2.095,0,5.69,9.236,5.1,2.834-.18,5.143-1.7,5.143-3.793s-2.3-3.794-5.143-3.794S185.538,72.257,185.538,75.605ZM94.552,85.77a1.932,1.932,0,0,0-.61.734,5.464,5.464,0,0,1-2.689,1.931,4.772,4.772,0,0,0-1.741.918,1.881,1.881,0,0,0,.181,2.711,3.646,3.646,0,0,0,2.453.533,15.545,15.545,0,0,0,8.828-3.3C104.224,86.714,96.34,84.8,94.552,85.77ZM85.789,90.6c-1.082-.71-2.479-.3-3.556.254a.968.968,0,0,0-.542.528c-.142.51.5.871,1.027,1.035a4.186,4.186,0,0,0,2.523.235C86.054,92.379,86.871,91.307,85.789,90.6Zm-40.85,66.795c-.8-2.442-2.692-3.656-5.555-2.266a10.494,10.494,0,0,0-3.919,3.919c-1.648,2.5-3.065,5.354-2.718,8.287a7.8,7.8,0,0,0,3.314,5.415,4.37,4.37,0,0,0,2.561.89,4.861,4.861,0,0,0,2.721-1.193,26.947,26.947,0,0,0,4.708-5.176,6.837,6.837,0,0,0,1.629-3.16C47.975,161.606,45.676,159.64,44.939,157.393ZM344.4,232.624a3.93,3.93,0,0,0-1.9,1.319,3.832,3.832,0,0,0-.482,1.7,33.955,33.955,0,0,0-.207,3.7c0,1.354.145,2.855,1.185,3.776,1.4,1.241,3.627.807,5.462.294a5.336,5.336,0,0,0,2.8-1.43,4.455,4.455,0,0,0,.8-2.1c.445-2.47,1.805-6.214.3-7.493S347.03,231.553,344.4,232.624ZM240.944,328.3a4.3,4.3,0,0,0-.95,1.179,2.6,2.6,0,0,0,1.337,3.44,5.459,5.459,0,0,0,2.126.253c6.161-.083,12.785-.308,17.706-3.844.6-.431,1.222-1.037,1.115-1.747-.129-.859-1.194-1.231-2.087-1.4C254.032,324.985,245.894,323.656,240.944,328.3Zm-116.955-9.511c-5.359-.723-13.881-1.746-13.879,2.589,0,1.636,7.562,3.21,8.813,3.512A100.955,100.955,0,0,1,130.2,328.6c7.016,2.592,12.634-.9,7.079-4.813A28.521,28.521,0,0,0,123.988,318.785Z" transform="translate(-29.616 -63.281)" fill="#c8eefb"/>
    </g>
    <g id="Groupe_1629" data-name="Groupe 1629" transform="translate(-5 118.91)">
      <path id="Tracé_1353" data-name="Tracé 1353" d="M673.614,162.858c-.357-2.125-6.975-6.724-6.975-6.724a18.393,18.393,0,0,1-4.459-3.422c-.99-1.167-1.3-1.155-1.392-1a.479.479,0,0,0-.217-.073c-.061-.044-.121-.086-.178-.133h0a.425.425,0,0,0-.245-.435,2.432,2.432,0,0,1-.226-.159,7.241,7.241,0,0,1-.742-3.115c-.073-1.332-1.592-1-2.073-.85-.35-.663-.694-1.358-1.016-2.049a3.635,3.635,0,0,0,.331-.714c.924-2.03.72-4.355,1.121-6.5.29-1.554.889-3.172.771-4.685v-.111a.054.054,0,0,1,0,.022,4.084,4.084,0,0,0-.255-1.1c-.264-.682-.729-1.269-.956-1.976-.334-1.021-.121-2.15-.4-3.191a4.749,4.749,0,0,0-2.688-2.912,13.19,13.19,0,0,0-3.978-.952c-3.4-.431-7.007-.688-10.112.758a1.776,1.776,0,0,1-.955.257,2.835,2.835,0,0,1-.86-.4,2.577,2.577,0,0,0-2.624.409,7.821,7.821,0,0,0-1.745,2.144,6.708,6.708,0,0,1-1.8,2.1c-.908.612-2.105.818-2.812,1.646a2.657,2.657,0,0,0-.586,1.37.052.052,0,0,0,0-.022v.447a3.386,3.386,0,0,0,0,.4,8.73,8.73,0,0,0,.6,2.252,3.137,3.137,0,0,0,.822,1.415c1.089.9,2.809.051,4.14.552a3.172,3.172,0,0,1,.318.149l-.048.152a10.793,10.793,0,0,0,10.485,13.782,5.892,5.892,0,0,0,.669-.025c.032.117.067.235.1.352a11.872,11.872,0,0,1,.318,4.035l-.067-.587a3.027,3.027,0,0,0-.452-.178,4.028,4.028,0,0,0-1.354-.206c-1.481-.022-3.714.584-6.093,3.508,0,0-3.038,1.713-3.933,2.125a.441.441,0,0,0-.166.19h0s-4.019,6.226-4.437,8.573l-.057.317-6.816-.317a12.491,12.491,0,0,0-1.147-4.888,1.748,1.748,0,0,0-.618-.818,1.827,1.827,0,0,0-1.551.06,14.834,14.834,0,0,0-5.9,4.006,4.2,4.2,0,0,0-7.806.1l-2.653-2.22c-1.207-1.018-2.634-2.1-4.2-1.865-1.7.26-2.761,1.963-3.309,3.578a1.845,1.845,0,0,1-.35.707,1.227,1.227,0,0,1-.1.082l-2.089-.1-3.643,3.9-2.016,2.16-5.567,5.963-.118.124v5.957a10.789,10.789,0,0,0-.4,1.323l.4-.06v2.3l1.535.079v27.459l17.418,1.139,7.507.482,13.265.866a4.593,4.593,0,0,0,1.634,3.686,3.053,3.053,0,0,1,.732.657c-.057.111-.115.225-.169.339a6.968,6.968,0,0,0-.92,3.074,4.2,4.2,0,0,1-.637,2.744s-4.013,12.608-3.924,16.23-1.43,11.587-1.43,11.587-1.656,5.132-.672,6.591,2.1,7.831,2.1,7.831a6.512,6.512,0,0,1,.713,2.7,13.416,13.416,0,0,0,.717,3.489l2.5,9.157a8.232,8.232,0,0,0,.672,4.158c.94,1.725.847,1.193.4,4.2s.535,5.795,2.147,6.68a.991.991,0,0,1,.462,1.377h-.016c-.411-.162-.752.7-.956,1.392-.124.127-.207.2-.207.2l.14.035c-.089.333-.14.584-.14.584s-4.2,3.54-4.459,4.821-3.22,1.948-3.22,1.948a51.4,51.4,0,0,0-5.634,1.859,2.135,2.135,0,0,0-1.233,1.716,4.8,4.8,0,0,0,.159,1.732c.449,1.814,6.707,1.992,9.7,1.507s9.211-2.258,9.211-2.258,6.526-.634,8.449-1.415.4-2.829.4-2.829v-.193c.048-.739.182-3.422-.28-4.142a6.067,6.067,0,0,1-.29-2.769c1.306-2.379-1.5-9.516-1.5-9.516s.538-6.978.178-8.006-1.876-9.687-1.876-9.687-.94-3.939-.583-4.6-.223-2.566-.223-2.566-1.519-2.122-1.385-2.785a4.088,4.088,0,0,0-.446-1.859s4.561-6.9,4.156-8.183a7.483,7.483,0,0,1,.178-3.362l1.274-2.147c.847-1.434,1.873-3.156,2.229-3.692a46.245,46.245,0,0,0,2.086-5.259c.248-.71.417-1.2.417-1.2s.717,13,1.341,14.334,1.567,11.809,1.567,11.809a7.332,7.332,0,0,1,.446,2.921c-.089,1.637,1.43,8.757,1.43,8.757s.672,5.043.223,6.369-.089,11.1-.089,11.1-2.459,1.9-3.083,3.359.089,5.443.089,5.443l.287.136a8.269,8.269,0,0,0-.51,1.719c-.089.841-1.433,4.647-1.3,5.176s-.583,2.166-.672,3.007-1.207,2.081-1.3,2.537a10.715,10.715,0,0,1-.494,1.167,11.485,11.485,0,0,0-.58,1.8c-.446,1.856,4.873,2.166,4.873,2.166,7.867,1.459,9.3-4.51,9.3-4.51s.981-5.31,1.341-5.709a.657.657,0,0,0,.06-.507h0a6.906,6.906,0,0,0-1.134-2.5,2.96,2.96,0,0,1-.226-1.732,3.616,3.616,0,0,0,.672-.124c3.185-.929,1.879-6.283,1.879-6.283s2.143-3.537,2.143-4.91a54.91,54.91,0,0,1,.761-5.573c2.726-4.954,1.653-16.985,2.1-17.959s-.94-4.6-2.057-6.236-.669-6.061,0-7.343-.669-5.709-.669-5.709,1.3-8.583,1.252-9.909a29.425,29.425,0,0,1,1.115-5.265s1.162-2.033.895-2.652.895-2.22.583-2.921.268-2.874.847-4.158a24.8,24.8,0,0,0,.955-4.076l.1-.53c1.3.834,2.487,1.456,2.93,1.288.8-.317-.471-4.441-1.344-7.016.15-.111.21-.2.15-.238-.535-.352.06-1.948.06-1.948,3.159-1.9,2.086-3.3,1.073-4.123s-.357-3.172-.656-4.123.357-5.249.895-8.374a6.059,6.059,0,0,0-.019-2.052c.576-.882,1.169-1.808,1.688-2.668,1.787-2.947,5.6-16.985,5.6-16.985l-.026-.073c.373-.745.637-1.351.8-1.754C676.117,174.182,673.971,164.98,673.614,162.858Zm-27.782-8.082.083-.041v.07ZM628.491,305.347a1.416,1.416,0,0,1-.567-.111Z" transform="translate(-382.926 -112.228)" fill="url(#linear-gradient)"/>
      <path id="Tracé_1354" data-name="Tracé 1354" d="M615.155,362.816c2.618.99,8.714,1.1,11.421,1.1h1.331l1.736-3.518-1.736-2.934s-1.592-.435-3.707-.815c-3.121-.561-7.392-1-9.427.26C611.358,359.007,611.74,361.525,615.155,362.816Z" transform="translate(-404.254 -271.767)" fill="#fec2be"/>
      <path id="Tracé_1355" data-name="Tracé 1355" d="M651.836,365.107h1.331l1.736-3.518-1.736-2.934s-1.592-.435-3.707-.815C651.177,359.09,655.3,361.814,651.836,365.107Z" transform="translate(-429.514 -272.96)" opacity="0.1"/>
      <path id="Tracé_1356" data-name="Tracé 1356" d="M679.919,242.629l-.768-.879s-3.946,6.217-4.357,8.564-.955,5.046-.955,5.046-.984,3.045-1.621,4.4a15.3,15.3,0,0,0-1.293,3.226c-.057.587.236,1.878-1,2.7s-1.532,3.051-1.532,3.051-4.459,4.339-6.831,4.456-9.128,1.291-8.892,2.465-2.828,1.878-4.064,2.17,7.962,3.806,2.592,8.329c0,0,3.414.7,3.768,1.526s3.946-.469,3.946-.469a3.734,3.734,0,0,1,3.417-1.935c2.65-.117,4-1.291,4-1.469a15.077,15.077,0,0,1,4.124-2.052c1.475-.412,3.414-.587,3.475-1s8.832-38.126,8.832-38.126Z" transform="translate(-428.851 -193.692)" fill="#4c4981"/>
      <path id="Tracé_1357" data-name="Tracé 1357" d="M679.919,242.629l-.768-.879s-3.946,6.217-4.357,8.564-.955,5.046-.955,5.046-.984,3.045-1.621,4.4a15.3,15.3,0,0,0-1.293,3.226c-.057.587.236,1.878-1,2.7s-1.532,3.051-1.532,3.051-4.459,4.339-6.831,4.456-9.128,1.291-8.892,2.465-2.828,1.878-4.064,2.17,7.962,3.806,2.592,8.329c0,0,3.414.7,3.768,1.526s3.946-.469,3.946-.469a3.734,3.734,0,0,1,3.417-1.935c2.65-.117,4-1.291,4-1.469a15.077,15.077,0,0,1,4.124-2.052c1.475-.412,3.414-.587,3.475-1s8.832-38.126,8.832-38.126Z" transform="translate(-428.851 -193.692)" opacity="0.05"/>
      <path id="Tracé_1358" data-name="Tracé 1358" d="M765.668,718.087c7.774,1.453,9.188-4.485,9.188-4.485s.955-5.278,1.325-5.674a.648.648,0,0,0,.061-.5h0a6.867,6.867,0,0,0-1.121-2.487c-.487-.574-.089-2.95-.089-2.95l-9.01-2.287a13.456,13.456,0,0,0-.882,2.639c-.086.834-1.414,4.621-1.274,5.148s-.573,2.157-.662,2.991-1.191,2.068-1.274,2.509a10.769,10.769,0,0,1-.487,1.158,11.3,11.3,0,0,0-.573,1.789C760.407,717.779,765.668,718.087,765.668,718.087Z" transform="translate(-505.421 -506.387)" fill="#ca8496"/>
      <path id="Tracé_1359" data-name="Tracé 1359" d="M765.638,734.714c7.774,1.453,9.188-4.485,9.188-4.485s.955-5.278,1.325-5.674a.647.647,0,0,0,.061-.5l-1.873,5.341s-1.545,3.213-7.287,2.728c-3.268-.273-4.876-.879-5.656-1.348a11.306,11.306,0,0,0-.573,1.789C760.377,734.406,765.638,734.714,765.638,734.714Z" transform="translate(-505.391 -523.014)" opacity="0.1"/>
      <path id="Tracé_1360" data-name="Tracé 1360" d="M790.557,728.008s-1.943.044-2.077-1.538Z" transform="translate(-524.258 -524.666)" opacity="0.1"/>
      <path id="Tracé_1361" data-name="Tracé 1361" d="M688.224,453.633c.956,1.453,2.077,7.787,2.077,7.787a6.548,6.548,0,0,1,.707,2.683,13.792,13.792,0,0,0,.707,3.489l2.475,9.106a8.156,8.156,0,0,0,.662,4.123c.93,1.706.838,1.189.395,4.18s.532,5.763,2.121,6.642-.707,2.947-.707,2.947,10.16,2.728,12.281,1.056-1.105-9.941-1.105-9.941.529-6.953.178-7.965-1.857-9.642-1.857-9.642-.927-3.914-.573-4.574-.223-2.553-.223-2.553-1.5-2.109-1.37-2.769a4.053,4.053,0,0,0-.443-1.84s4.5-6.864,4.108-8.139a7.565,7.565,0,0,1,.175-3.343s.57-.974,1.255-2.135c.838-1.427,1.85-3.137,2.191-3.67a47.132,47.132,0,0,0,2.061-5.23l.414-1.193s.7,12.932,1.325,14.251,1.545,11.736,1.545,11.736a7.344,7.344,0,0,1,.443,2.905c-.089,1.627,1.414,8.71,1.414,8.71s.662,5.015.22,6.344-.089,11.041-.089,11.041-2.43,1.9-3.048,3.343.089,5.411.089,5.411,7.067,3.518,10.192,2.595,1.854-6.245,1.854-6.245,2.121-3.521,2.121-4.885a55.022,55.022,0,0,1,.752-5.541c2.694-4.929,1.634-16.893,2.073-17.861s-.911-4.577-2.022-6.192-.662-6.026,0-7.3-.656-5.709-.656-5.709,1.274-8.535,1.239-9.855a30.128,30.128,0,0,1,1.1-5.234s1.147-2.024.882-2.639.882-2.2.573-2.905.264-2.855.841-4.123a26.442,26.442,0,0,0,.955-4.054c.271-1.519.471-2.855.471-2.855l-7.29-5.849-18.2-4.758-6.847-2.2-6.669,10.467s-.688,1.094-1.3,2.357a6.986,6.986,0,0,0-.908,3.054,4.208,4.208,0,0,1-.618,2.728s-3.991,12.545-3.9,16.157-1.4,11.526-1.4,11.526S687.252,452.18,688.224,453.633Z" transform="translate(-455.723 -302.287)" fill="#4c4981"/>
      <path id="Tracé_1362" data-name="Tracé 1362" d="M598.046,209.76v27.452l-7.287,14.641h0l-.233.463-19.291-1.269-7.414-.488-17.211-1.132V216.589l17.211.485,7.7.216,19.469.549Z" transform="translate(-346.522 -145.227)" fill="#6c63ff"/>
      <path id="Tracé_1363" data-name="Tracé 1363" d="M692.517,214.87V240.7l-1.78,3.575v0l-1.828,3.663v0l-3.678,7.4.411-27.452.083-5.538,3.5-3.857h0l1.526-1.681Z" transform="translate(-440.993 -148.717)" opacity="0.1"/>
      <path id="Tracé_1364" data-name="Tracé 1364" d="M595.789,182.54v9.588l-.987,1.57-1.768,2.8-1.567,2.484-3.459,5.487-.083,0-46.076-2.36v-9.458l.115-.124,5.5-5.931,1.994-2.144,3.6-3.882Z" transform="translate(-343.278 -125.296)" fill="#6c63ff"/>
      <path id="Tracé_1365" data-name="Tracé 1365" d="M588.008,220.76v9.455l-46.158-2.363v-9.458l.115-.124Z" transform="translate(-343.278 -151.038)" opacity="0.1"/>
      <path id="Tracé_1366" data-name="Tracé 1366" d="M694.561,186.78v9.588l-7.781,12.345v-9.455Z" transform="translate(-442.049 -129.536)" opacity="0.15"/>
      <path id="Tracé_1367" data-name="Tracé 1367" d="M605.055,195.309l-.006,6.442v3.108l-.013,24.353v0l-1.828,3.664.274-25.537.041-3.911h0l.064-5.77-44.107-2.709,1.994-2.144Z" transform="translate(-355.293 -133.654)" fill="#3f3d56"/>
      <path id="Tracé_1368" data-name="Tracé 1368" d="M611.466,201.69l-3.092,6.683-.026,3.407-.283,33.758-7.414-.488V207.926l3.956-6.236Z" transform="translate(-383.351 -139.717)" fill="#3f3d56"/>
      <path id="Tracé_1369" data-name="Tracé 1369" d="M626.869,261.971a9.841,9.841,0,0,1-5.526.194,2.256,2.256,0,0,1-.955-.447,2.507,2.507,0,0,1-.6-1.183,9.338,9.338,0,0,1-.529-2.832,3.2,3.2,0,0,1,1.182-2.537,2.593,2.593,0,0,0,.449-.336,1.793,1.793,0,0,0,.347-.7c.541-1.6,1.592-3.3,3.268-3.559,1.551-.235,2.962.844,4.156,1.856l2.621,2.22a4.147,4.147,0,0,1,7.714-.1,14.632,14.632,0,0,1,5.831-3.984,1.8,1.8,0,0,1,1.532-.06,1.747,1.747,0,0,1,.608.815,12.476,12.476,0,0,1,1.137,4.948.871.871,0,0,1,1.01.349,2.267,2.267,0,0,1,.338,1.091,15.387,15.387,0,0,1,.105,1.8,2.707,2.707,0,0,1-.475,1.8,3.009,3.009,0,0,1-2.28.7.912.912,0,0,1-.236,1.351,2.659,2.659,0,0,1-1.535.295c-2.038-.019-4.207-.076-5.9-1.205-.669-.444-1.229-1.037-1.911-1.481a9.29,9.29,0,0,0-5.618-1.047C629.872,260.014,628.506,261.438,626.869,261.971Z" transform="translate(-408.932 -199.56)" fill="#3f3d56"/>
      <path id="Tracé_1370" data-name="Tracé 1370" d="M600.509,285.62s-17.013,2.363-19.389,12.608l3.564-.523,2.5,4.466s2.64-9.985,10.421-12.348a86.112,86.112,0,0,1,10.548-2.76s5.414,1.316,10.287,16.944l2.771-3.806,4.879,1.053s-3.561-12.215-13.189-15.631Z" transform="translate(-382.94 -223.647)" fill="#3f3d56"/>
      <path id="Tracé_1371" data-name="Tracé 1371" d="M772.03,198.9c.28-.114,19.495-8.015,16.848-9.588-1.57-.933-3.5-4.881-4.828-7.974-.924-2.163-1.551-3.9-1.551-3.9s-15.421-2.728-9.9,6.686a17.366,17.366,0,0,1,1.946,4.637A10.388,10.388,0,0,1,772.03,198.9Z" transform="translate(-512.62 -149.529)" fill="#fec2be"/>
      <path id="Tracé_1372" data-name="Tracé 1372" d="M772.6,184.126a17.365,17.365,0,0,1,1.946,4.637,10.776,10.776,0,0,0,9.106-6.375,10.115,10.115,0,0,0,.4-1.047c-.924-2.163-1.551-3.9-1.551-3.9S767.078,174.712,772.6,184.126Z" transform="translate(-512.62 -149.529)" opacity="0.1"/>
      <path id="Tracé_1373" data-name="Tracé 1373" d="M745.05,155.954a10.784,10.784,0,0,0,20.638,4.333,10.59,10.59,0,0,0,.917-4.333,10.778,10.778,0,0,0-21.555,0Z" transform="translate(-494.66 -127.78)" fill="#fec2be"/>
      <path id="Tracé_1374" data-name="Tracé 1374" d="M712.4,413.633a6.541,6.541,0,0,1,1.564,2.966s5.316,3.613,4.949,1.319,2.739-11.523,2.739-11.523l-.354,12.58s16.959-.79,18.2-2.024,8.481-3.606,8.481-3.606,2.229,1.773,4.255,3.118c.271-1.519.471-2.855.471-2.855l-7.29-5.849L727.216,403l-6.848-2.2L713.7,411.267S713.012,412.371,712.4,413.633Z" transform="translate(-472.409 -302.294)" opacity="0.1"/>
      <path id="Tracé_1375" data-name="Tracé 1375" d="M707.2,277.091c1.411.882,1.943,3.257,1.943,3.257s5.3,3.606,4.946,1.32,2.739-11.526,2.739-11.526l-.354,12.58s16.963-.79,18.2-2.024,8.481-3.606,8.481-3.606,6.271,5.015,7.421,4.577-2.032-8.976-2.032-8.976L745.27,222.72s.882-14.87-.443-15.4a1.913,1.913,0,0,1-.557-.346c-.873-.783-1.134-2.369-1.21-3.7-.086-1.586-2.207-.793-2.207-.793l1.236,1.586L731.142,210.7l-.1.06a12.509,12.509,0,0,0-1.315-.6,4.759,4.759,0,0,0-3.1-.371,2.987,2.987,0,0,0-1.159,1.037,13.046,13.046,0,0,0-1.49,3.01L720,220.521s-2.032,8.881-2.032,9.236-.618,8.447-1.325,9.325-1.414,5.281-1.15,6.6-.443,6.245-.443,6.245c-2.914,2.376-4.417,10.467-4.417,10.467s-4.593,9.062-4.946,10.118S705.781,276.213,707.2,277.091Z" transform="translate(-467.758 -166.745)" fill="#fff"/>
      <path id="Tracé_1376" data-name="Tracé 1376" d="M785.85,211.791a22.347,22.347,0,0,0,4.175,3.806l8.953-7.53c-.873-.783-1.134-2.369-1.21-3.7-.086-1.586-2.207-.793-2.207-.793l.255.317a1.414,1.414,0,0,1-.382,2.081Z" transform="translate(-522.466 -167.489)" opacity="0.1"/>
      <path id="Tracé_1377" data-name="Tracé 1377" d="M785.85,210.681a22.348,22.348,0,0,0,4.175,3.806l8.953-7.53c-.873-.783-1.134-2.369-1.21-3.7-.086-1.586-2.207-.793-2.207-.793l.255.317a1.414,1.414,0,0,1-.382,2.081Z" transform="translate(-522.466 -166.731)" fill="#fff"/>
      <path id="Tracé_1378" data-name="Tracé 1378" d="M772.85,229.623c1.156,1.38,2.8,2.94,2.72,2.157s.978-2.509,1.65-3.283a4.908,4.908,0,0,0-3.21.086A3.021,3.021,0,0,0,772.85,229.623Z" transform="translate(-513.606 -184.486)" opacity="0.1"/>
      <path id="Tracé_1379" data-name="Tracé 1379" d="M772.29,228.335c1.159,1.377,2.8,2.94,2.72,2.157s.87-2.049,1.542-2.823a4.779,4.779,0,0,0-3.1-.374A2.97,2.97,0,0,0,772.29,228.335Z" transform="translate(-513.224 -183.725)" fill="#fff"/>
      <ellipse id="Ellipse_304" data-name="Ellipse 304" cx="0.707" cy="0.704" rx="0.707" ry="0.704" transform="translate(261.257 50.519)" fill="#ff718d"/>
      <ellipse id="Ellipse_305" data-name="Ellipse 305" cx="0.707" cy="0.704" rx="0.707" ry="0.704" transform="translate(255.897 69.522)" fill="#ff718d"/>
      <ellipse id="Ellipse_306" data-name="Ellipse 306" cx="0.707" cy="0.704" rx="0.707" ry="0.704" transform="translate(249.83 88.762)" fill="#ff718d"/>
      <ellipse id="Ellipse_307" data-name="Ellipse 307" cx="0.707" cy="0.704" rx="0.707" ry="0.704" transform="translate(249.654 109.7)" fill="#ff718d"/>
      <ellipse id="Ellipse_308" data-name="Ellipse 308" cx="0.707" cy="0.704" rx="0.707" ry="0.704" transform="translate(258.136 59.493)" fill="#ff718d"/>
      <ellipse id="Ellipse_309" data-name="Ellipse 309" cx="0.707" cy="0.704" rx="0.707" ry="0.704" transform="translate(253.365 79.025)" fill="#ff718d"/>
      <ellipse id="Ellipse_310" data-name="Ellipse 310" cx="0.707" cy="0.704" rx="0.707" ry="0.704" transform="translate(248.712 98.205)" fill="#ff718d"/>
      <ellipse id="Ellipse_311" data-name="Ellipse 311" cx="0.707" cy="0.704" rx="0.707" ry="0.704" transform="translate(249.772 112.047)" fill="#ff718d"/>
      <path id="Tracé_1380" data-name="Tracé 1380" d="M793.367,217.793s-.118-1.056,1.414.761a18.647,18.647,0,0,0,4.417,3.4s6.539,4.574,6.889,6.686,2.471,11.26,1.354,14.311-9.66,17.655-9.66,17.655a7.9,7.9,0,0,1,1.71,5.747c-.519,3.108-1.178,7.39-.885,8.329s-.353,3.283.637,4.1,2.061,2.22-1.061,4.108c0,0-.589,1.586-.06,1.935s-7.832,3.99-11.131,2.052-9.236-17.42-9.364-20.88,1.825-14.908,2.886-17.6,4.242-13.195,5.6-15.542S793.367,217.793,793.367,217.793Z" transform="translate(-516.858 -177.125)" opacity="0.1"/>
      <path id="Tracé_1381" data-name="Tracé 1381" d="M794.456,217.793s-.118-1.056,1.414.761a18.645,18.645,0,0,0,4.417,3.4s6.535,4.574,6.892,6.686,2.471,11.26,1.354,14.311-9.672,17.655-9.672,17.655a7.9,7.9,0,0,1,1.71,5.747c-.519,3.108-1.178,7.39-.885,8.329s-.353,3.283.637,4.1,2.061,2.22-1.061,4.108c0,0-.589,1.586-.06,1.935s-7.832,3.99-11.131,2.052-9.236-17.42-9.364-20.88,1.825-14.908,2.885-17.6,4.242-13.195,5.6-15.542S794.456,217.793,794.456,217.793Z" transform="translate(-517.594 -177.125)" fill="#4c4981"/>
      <path id="Tracé_1382" data-name="Tracé 1382" d="M825.1,249.88s-5.064,5.573-4.889,9.268C820.211,259.148,820.141,253.166,825.1,249.88Z" transform="translate(-545.88 -199.243)" opacity="0.1"/>
      <path id="Tracé_1383" data-name="Tracé 1383" d="M801.082,278.73c0,.178-3.414,12.846-3.239,14.429s-1,6.274-1,6.274l-1.592-.412s1.236-6.509,1.471-8.913S801.082,278.73,801.082,278.73Z" transform="translate(-528.872 -218.942)" opacity="0.1"/>
      <path id="Tracé_1384" data-name="Tracé 1384" d="M809.31,392.64c.118.178,8.07,9.151,5.831,9.795S809.31,392.64,809.31,392.64Z" transform="translate(-538.454 -296.722)" opacity="0.1"/>
      <path id="Tracé_1385" data-name="Tracé 1385" d="M829.84,385.43c.175.117,3.185,6.452,3.532,4.758s-2.589,4.634-3.061-.06Z" transform="translate(-552.446 -291.799)" opacity="0.1"/>
      <path id="Tracé_1386" data-name="Tracé 1386" d="M740.335,223.905s-3.284-1.992-7.408,3.108c0,0-3,1.7-3.885,2.112s-1.885,11.32-1.885,11.32-1.943,4.691-1.414,7.39-1.529,11.967-1.529,11.967-3.417,16.655-3.3,17.128,3.475-5.221,3.414-8.034,2.828-11.615,3.242-12.142,3.242-15.605,3.242-15.605,2.3-6.394,3.768-8.5,3.3-6.1,4.064-6.8a7.718,7.718,0,0,1,1.825-1.174Z" transform="translate(-478.209 -181.246)" opacity="0.1"/>
      <path id="Tracé_1387" data-name="Tracé 1387" d="M739.583,223.905s-3.682-1.992-7.806,3.108c0,0-3,1.7-3.886,2.112s-1.885,11.32-1.885,11.32-1.943,4.691-1.414,7.39-1.529,11.967-1.529,11.967-3.417,16.655-3.3,17.128,3.475-5.221,3.417-8.034,2.825-11.615,3.239-12.142,3.239-15.6,3.239-15.6,2.3-6.394,3.768-8.5,3.3-6.1,4.064-6.8a7.248,7.248,0,0,1,2.178-1.174Z" transform="translate(-477.425 -181.246)" fill="#4c4981"/>
      <path id="Tracé_1388" data-name="Tracé 1388" d="M696.7,333.973s-7.007-4.574-10.4-2.319-8.918,5.456-3.475,7.774,12.985,1.875,12.985,1.875Z" transform="translate(-450.694 -254.653)" fill="#fec2be"/>
      <path id="Tracé_1389" data-name="Tracé 1389" d="M745.749,469.791c1.045,2.22,1.911,13.445,2.491,17,.838-1.427,1.85-3.137,2.191-3.67a47.117,47.117,0,0,0,2.061-5.23c-.666-1.611-2.5-6.23-2.5-7.93,0-2.068-3.357-4.663-3.357-4.663A3.874,3.874,0,0,0,745.749,469.791Z" transform="translate(-494.872 -346.335)" opacity="0.1"/>
      <path id="Tracé_1390" data-name="Tracé 1390" d="M795.152,584.194s-7.774-3.3-10.07-.952S795.152,584.194,795.152,584.194Z" transform="translate(-521.748 -426.291)" opacity="0.1"/>
      <path id="Tracé_1391" data-name="Tracé 1391" d="M803.58,592.22s7.863,4.4,5.169,5.145S803.58,592.22,803.58,592.22Z" transform="translate(-534.549 -432.998)" opacity="0.1"/>
      <path id="Tracé_1392" data-name="Tracé 1392" d="M729.8,580.15s3.357.219,2.073.879S729.8,580.15,729.8,580.15Z" transform="translate(-484.267 -424.757)" opacity="0.1"/>
      <path id="Tracé_1393" data-name="Tracé 1393" d="M716.62,583.34c.045.219,9.762,3.343,7.863,4.758S716.62,583.34,716.62,583.34Z" transform="translate(-475.285 -426.935)" opacity="0.1"/>
      <path id="Tracé_1394" data-name="Tracé 1394" d="M798.43,663.4c-1.455-.219-9.583-3.958-6.4-1.269A6.33,6.33,0,0,0,798.43,663.4Z" transform="translate(-526.176 -480.075)" opacity="0.1"/>
      <path id="Tracé_1395" data-name="Tracé 1395" d="M792.331,677.51a3.155,3.155,0,0,1-3.4,2.376C786.235,679.534,792.331,677.51,792.331,677.51Z" transform="translate(-524.096 -491.236)" opacity="0.1"/>
      <path id="Tracé_1396" data-name="Tracé 1396" d="M794.45,690.979c-.487-.133-6.274-2.772-6.4-1.542s5.519,3.388,5.962,2.728a2.349,2.349,0,0,0,.443-1.186Z" transform="translate(-523.96 -499.157)" opacity="0.1"/>
      <path id="Tracé_1397" data-name="Tracé 1397" d="M730.826,682.742c-.707-.044-7.325-2.154-8.656-.263Z" transform="translate(-479.067 -494.092)" opacity="0.1"/>
      <path id="Tracé_1398" data-name="Tracé 1398" d="M725.076,687.512a2.351,2.351,0,0,0-2.3-.482C721.633,687.559,725.076,687.512,725.076,687.512Z" transform="translate(-479.323 -497.631)" opacity="0.1"/>
      <path id="Tracé_1399" data-name="Tracé 1399" d="M773.32,723.28a1.964,1.964,0,0,1-1.5,1.538Z" transform="translate(-512.904 -522.488)" opacity="0.1"/>
      <path id="Tracé_1400" data-name="Tracé 1400" d="M670.3,705.715c.443,1.8,6.628,1.979,9.586,1.494s9.1-2.23,9.1-2.23,6.449-.615,8.348-1.408.4-2.817.4-2.817v-.187c.045-.736.178-3.4-.277-4.123-.532-.834-.223-3.562-.223-3.562s-9.141,1.76-9.319.923a4.744,4.744,0,0,0-2.252-2.287c-.659-.263-1.15,2.2-1.15,2.2s-4.14,3.521-4.417,4.8-3.185,1.935-3.185,1.935a50.409,50.409,0,0,0-5.567,1.849,2.135,2.135,0,0,0-1.22,1.706A4.846,4.846,0,0,0,670.3,705.715Z" transform="translate(-443.586 -500.787)" fill="#ca8496"/>
      <path id="Tracé_1401" data-name="Tracé 1401" d="M670.326,725.238c.443,1.8,6.628,1.979,9.586,1.494s9.1-2.23,9.1-2.23,6.449-.615,8.347-1.408.4-2.817.4-2.817v-.187l-9.236,2.036s-4.548,1.935-7.462,1.935c-2.548,0-8.249,1.04-10.9-.536A4.845,4.845,0,0,0,670.326,725.238Z" transform="translate(-443.612 -520.31)" opacity="0.1"/>
      <path id="Tracé_1402" data-name="Tracé 1402" d="M710,714.4s.443,2.905,2.21,3.873Z" transform="translate(-470.773 -516.425)" opacity="0.1"/>
      <path id="Tracé_1403" data-name="Tracé 1403" d="M746.37,152.979a2.876,2.876,0,0,0,.522.216,3.264,3.264,0,0,0,2.376-.777c.736-.444,1.752-.774,2.389-.2.831.752.229,2.36,1.086,3.083.542.46,1.4.317,2,.682a2.825,2.825,0,0,1,.936,1.919c.153.717.455,1.529,1.159,1.738s1.354-.251,2.045-.225c.143,0,.318.022.408-.082a.424.424,0,0,0,.067-.317,6.76,6.76,0,0,1,.226-2.537,2.458,2.458,0,0,1,1.793-1.675c1.242-.19,2.284.894,3.013,1.9a31.189,31.189,0,0,1,2.089,3.349,2.509,2.509,0,0,1,.105.232,10.59,10.59,0,0,0,.917-4.333,10.783,10.783,0,0,0-21.135-2.972Z" transform="translate(-495.56 -127.777)" opacity="0.1"/>
      <path id="Tracé_1404" data-name="Tracé 1404" d="M752.023,143.362c-.729-1.018-1.771-2.1-3.013-1.9a2.433,2.433,0,0,0-1.793,1.672,6.709,6.709,0,0,0-.223,2.537.437.437,0,0,1-.073.317c-.1.1-.261.089-.4.082-.691-.025-1.379.422-2.045.225s-1.006-1.021-1.159-1.738a2.741,2.741,0,0,0-.936-1.9c-.618-.374-1.462-.222-2-.682-.857-.726-.255-2.335-1.086-3.083-.637-.577-1.653-.247-2.389.2a3.28,3.28,0,0,1-2.376.78c-.28-.076-.532-.238-.806-.343-1.309-.495-3.007.346-4.083-.549a3.121,3.121,0,0,1-.815-1.405,8.921,8.921,0,0,1-.6-2.239,2.985,2.985,0,0,1,.6-2.185c.7-.825,1.885-1.028,2.78-1.637a6.93,6.93,0,0,0,1.777-2.087,7.856,7.856,0,0,1,1.723-2.135,2.555,2.555,0,0,1,2.592-.4,2.926,2.926,0,0,0,.85.4,1.773,1.773,0,0,0,.956-.257c3.064-1.437,6.631-1.183,9.991-.755a13,13,0,0,1,3.933.952,4.7,4.7,0,0,1,2.653,2.9c.274,1.034.064,2.157.395,3.172.223.691.682,1.269.956,1.963.717,1.852-.14,3.889-.5,5.843-.4,2.135-.2,4.441-1.108,6.467-.178.4-.379,1.091-.828.828-.318-.193-.656-1.319-.847-1.668A30.841,30.841,0,0,0,752.023,143.362Z" transform="translate(-483.177 -114.611)" fill="#9a5e7f"/>
      <path id="Tracé_1405" data-name="Tracé 1405" d="M767.662,267.489l1.592,4.517s-3.771,13.956-5.538,16.893-4.357,6.686-4.357,6.686a16.234,16.234,0,0,1-9.424,1.174c-5.067-1-19.848-3.638-19.848-3.638a1.965,1.965,0,0,1-1.882-.7c-.647-.939-4.007-1.408-4.007-1.408s-3.885-5.63.885-7.977c0,0,.586,1.291,3.121.412s3.3.7,3.3.7a26.829,26.829,0,0,0,6.421.527c2.3-.295,8.01-.409,8.6-.879a.757.757,0,0,1,1.061.057,6.442,6.442,0,0,0,1.882-1.053c.471-.527,1.121.584,1.121.584s.825-.466.589-1.053.764-2.817.764-2.817a5.667,5.667,0,0,0,.175-2.639c-.3-1.174,1.475-5.392,1.475-5.392a7.438,7.438,0,0,0-.236-2.112c-.3-1.056,2.229-3.172,2.229-3.172s2.475-11.964,7.717-8.034A10.239,10.239,0,0,1,767.662,267.489Z" transform="translate(-479.432 -204.359)" opacity="0.1"/>
      <path id="Tracé_1406" data-name="Tracé 1406" d="M768.788,267.489l1.592,4.517s-3.771,13.956-5.538,16.893-4.357,6.686-4.357,6.686a16.241,16.241,0,0,1-9.424,1.174c-5.064-1-19.854-3.638-19.854-3.638a1.965,1.965,0,0,1-1.882-.7c-.646-.939-4.007-1.408-4.007-1.408s-3.886-5.63.885-7.977c0,0,.586,1.291,3.121.412s3.3.7,3.3.7a26.929,26.929,0,0,0,6.421.527c2.28-.295,8.01-.409,8.6-.879a.754.754,0,0,1,1.057.057,6.448,6.448,0,0,0,1.885-1.053c.471-.527,1.121.584,1.121.584s.822-.466.586-1.053.768-2.817.768-2.817a5.668,5.668,0,0,0,.175-2.639c-.3-1.174,1.475-5.392,1.475-5.392a7.438,7.438,0,0,0-.236-2.112c-.3-1.056,2.229-3.172,2.229-3.172s2.475-11.964,7.717-8.034A10.253,10.253,0,0,1,768.788,267.489Z" transform="translate(-480.196 -204.359)" fill="#4c4981"/>
      <path id="Tracé_1407" data-name="Tracé 1407" d="M743.264,348.82c.061.409,1.357,2.052.885,2.344s-1.239.117-.532,1.056.637,2.347.178,2.169-1.236-2.287-1.236-3.108A9.2,9.2,0,0,1,743.264,348.82Z" transform="translate(-492.963 -266.801)" opacity="0.1"/>
      <path id="Tracé_1408" data-name="Tracé 1408" d="M799.7,345.86s.354,4.1,3.239,5.278S799.7,345.86,799.7,345.86Z" transform="translate(-531.905 -264.78)" opacity="0.1"/>
      <path id="Tracé_1409" data-name="Tracé 1409" d="M818.56,341.42c.175.057,4.121,2.17,2.354,3.4S818.56,341.42,818.56,341.42Z" transform="translate(-544.758 -261.748)" opacity="0.1"/>
      <path id="Tracé_1410" data-name="Tracé 1410" d="M819.3,332.17s5.771,1.174,3.822,2.17S819.3,332.17,819.3,332.17Z" transform="translate(-545.262 -255.432)" opacity="0.1"/>
      <g id="Groupe_1627" data-name="Groupe 1627" transform="translate(245.02 19.841)" opacity="0.1">
        <path id="Tracé_1411" data-name="Tracé 1411" d="M787.34,164.477a2.454,2.454,0,0,1,1.793-1.672c1.242-.19,2.284.891,3.013,1.9a30.791,30.791,0,0,1,2.089,3.346c.191.352.516,1.478.847,1.672.449.263.637-.435.828-.831.911-2.017.71-4.33,1.108-6.464a37.452,37.452,0,0,0,.758-3.771c.134,1.532-.468,3.146-.758,4.71-.4,2.135-.2,4.441-1.108,6.464-.178.4-.379,1.091-.828.831-.318-.193-.656-1.319-.847-1.672a30.8,30.8,0,0,0-2.077-3.343c-.729-1.021-1.771-2.1-3.013-1.9a2.434,2.434,0,0,0-1.793,1.672,4.64,4.64,0,0,0-.236,1.319A6.047,6.047,0,0,1,787.34,164.477Z" transform="translate(-768.332 -156.798)"/>
        <path id="Tracé_1412" data-name="Tracé 1412" d="M728.8,154.9a3.14,3.14,0,0,0,.815,1.405c1.077.894,2.774.051,4.083.549a8.043,8.043,0,0,0,.806.339,3.2,3.2,0,0,0,2.376-.777c.736-.46,1.752-.774,2.389-.2.831.752.229,2.36,1.086,3.083.541.463,1.4.317,2,.682a2.82,2.82,0,0,1,.936,1.9c.153.7.455,1.529,1.159,1.738s1.354-.251,2.045-.225c.143,0,.318.022.4-.082a.235.235,0,0,0,.051-.086c0,.235,0,.469.022.7a.443.443,0,0,1-.073.317c-.1.1-.261.089-.4.082-.691-.025-1.379.422-2.045.225s-1.006-1.025-1.159-1.738a2.818,2.818,0,0,0-.936-1.919c-.618-.39-1.462-.222-2-.682-.857-.723-.255-2.331-1.086-3.083-.637-.574-1.653-.244-2.389.2a3.263,3.263,0,0,1-2.376.777c-.28-.076-.532-.235-.806-.339-1.309-.5-3.007.346-4.083-.549a3.133,3.133,0,0,1-.815-1.408,8.849,8.849,0,0,1-.6-2.239,3.615,3.615,0,0,1,.019-.787,9.492,9.492,0,0,0,.576,2.109Z" transform="translate(-728.189 -152.79)"/>
      </g>
      <path id="Tracé_1413" data-name="Tracé 1413" d="M274.06,569.972c0,19.8,11.539,35.842,25.772,35.842s25.772-16.05,25.772-35.842-11.539-35.842-25.772-35.842S274.06,550.176,274.06,569.972Zm1.777-.479c0-17.331,10.147-31.382,22.66-31.382s22.68,14.058,22.68,31.382-10.147,31.382-22.664,31.382S275.837,586.824,275.837,569.493Z" transform="translate(-173.674 -393.333)" fill="#35323e"/>
      <path id="Tracé_1414" data-name="Tracé 1414" d="M309.083,400.18l1.777,30.094h34.925A12.131,12.131,0,0,1,354,433.367a10.882,10.882,0,0,1,3.523,7.086v45.139H353.06l.032-3.1H309.067v-4.441h44.085l.363-36.216a5.857,5.857,0,0,0-.14-1.354,7.148,7.148,0,0,0-3.1-4.59,5.789,5.789,0,0,0-2.962-.768H307.742l-2.229-31.42H292.2V400.18Z" transform="translate(-186.037 -301.87)" fill="#464353"/>
      <path id="Tracé_1415" data-name="Tracé 1415" d="M309.083,400.18l1.777,30.094h34.925A12.131,12.131,0,0,1,354,433.367a10.882,10.882,0,0,1,3.523,7.086v45.139H353.06l.032-3.1H309.067v-4.441h44.085l.363-36.216a5.857,5.857,0,0,0-.14-1.354,7.148,7.148,0,0,0-3.1-4.59,5.789,5.789,0,0,0-2.962-.768H307.742l-2.229-31.42H292.2V400.18Z" transform="translate(-186.037 -301.87)" opacity="0.1"/>
      <path id="Tracé_1416" data-name="Tracé 1416" d="M229.439,364.794l-33.549-1.1,1.777,46.464,80.428.885-2-18.806-43.77,7.3Z" transform="translate(-107.502 -250.333)" fill="#35323e"/>
      <rect id="Rectangle_702" data-name="Rectangle 702" width="44.435" height="4.425" transform="translate(91.497 176.194)" fill="#464353"/>
      <path id="Tracé_1417" data-name="Tracé 1417" d="M336.257,607.165v-13h3.554v13a6.706,6.706,0,0,1,2.229,5.348c0,3.3-1.793,5.973-4,5.973s-4-2.674-4-5.973A6.74,6.74,0,0,1,336.257,607.165Z" transform="translate(-214.551 -434.323)" fill="#464353"/>
      <path id="Tracé_1418" data-name="Tracé 1418" d="M378.8,667.676a4.192,4.192,0,0,0-5.462-.193h0s-5.331,3.54-.446,18.587c0,0,3.558,2.22,1.777-4.869s-.889-11.508.889-11.508,4,4.869,4,4.869l3.112-1.326A18.815,18.815,0,0,0,378.8,667.676Z" transform="translate(-239.622 -483.761)" fill="#464353"/>
      <path id="Tracé_1419" data-name="Tracé 1419" d="M483.437,667.676a4.192,4.192,0,0,0-5.462-.193h0s-5.331,3.54-.446,18.587c0,0,3.557,2.22,1.78-4.869s-.892-11.508.889-11.508,4,4.869,4,4.869l3.112-1.326A18.816,18.816,0,0,0,483.437,667.676Z" transform="translate(-310.936 -483.761)" fill="#464353"/>
      <ellipse id="Ellipse_312" data-name="Ellipse 312" cx="9.997" cy="13.277" rx="9.997" ry="13.277" transform="translate(162.15 187.702)" fill="#35323e"/>
      <ellipse id="Ellipse_313" data-name="Ellipse 313" cx="9.997" cy="13.277" rx="9.997" ry="13.277" transform="translate(128.824 187.702)" fill="#35323e"/>
      <path id="Tracé_1420" data-name="Tracé 1420" d="M302.177,427.339a6.038,6.038,0,0,0-3.542-1.817c-1.991,0-9.838-9.275-10.36-10.588-.191-.479-.51-.317-.834.1a24.563,24.563,0,0,1-1.694-5.123c.841-.212,1.379-.368,1.379-.368s.1-2.988-.637-3.3h-.019c-.713-.419-.713-6.582-.713-6.582s-1.672-5.446-1.462-7.413-4.175-16.934-4.175-16.934-1.15-9-3.242-9.909c-1.768-.771-16.657-5-21.256-6.3a3.166,3.166,0,0,0-3.124-1.618c-2.513,0-10.045.1-12.555-2.782a5.78,5.78,0,0,1-.774-1.25c1.242-2.274,1.322-6.026.876-6.892A16.63,16.63,0,0,1,239,342.857a69.621,69.621,0,0,0-.739-7.524c-.42-1.548-2.191-14.223-2.191-14.223S232.511,317.733,230,317a10.526,10.526,0,0,1-3.042-1.586c.038-.206.076-.393.105-.552a9.359,9.359,0,0,0,3.185-5.31,1.489,1.489,0,0,0,.1-.352,3.558,3.558,0,0,0,.025-.488c.032-.3.051-.6.054-.9v-.2a1.206,1.206,0,0,1,.175-.412c.366-.523,1.121-.634,1.723-.894a2.606,2.606,0,0,0,.264-.14l.076-.051c.057-.035.111-.07.162-.108l.089-.073.131-.111.086-.086c.038-.038.076-.076.111-.117l.083-.1c.032-.041.064-.079.092-.121l.076-.111a1.271,1.271,0,0,0,.076-.121c.025-.041.051-.082.073-.127s.041-.079.061-.117.048-.1.067-.143a1.094,1.094,0,0,0,.045-.108c.022-.054.045-.108.064-.162l.029-.086c.019-.063.041-.127.061-.193v-.019a4.937,4.937,0,0,0,.146-1.646h0a2.555,2.555,0,0,0-.048-.412,10.536,10.536,0,0,1-.385-2.87h0a1.335,1.335,0,0,1,.041-.247v-.029a2.508,2.508,0,0,1,.07-.254c.131-.377.354-.723.475-1.1h0a2.174,2.174,0,0,0,.061-.238v-.063c0-.067.019-.133.022-.2v-.048a2.4,2.4,0,0,0-.035-.52h0a3.4,3.4,0,0,0-1.137-1.9,8.783,8.783,0,0,0-3.105-1.535,35.832,35.832,0,0,0-8.886-2.046c-1.331-.086-3.073-.495-4.14.317a14.434,14.434,0,0,1-3.57,2.312,3.9,3.9,0,0,0-2.548,2.309,8.848,8.848,0,0,0-.054,1.51,11.725,11.725,0,0,1-.857,2.931,4.424,4.424,0,0,0-.236,1.77v.029a1.111,1.111,0,0,0,.032.206v.035a2.361,2.361,0,0,0,.137.441c0,.019.016.035.022.054s.051.1.08.155l.029.054c.041.067.083.13.131.193.194.257.455.473.637.742a3.029,3.029,0,0,1,.363,1.367c.051.482.1.967.15,1.45v.108c-.016.213-.025.428-.025.634a9.574,9.574,0,0,0,.121,1.491,7.285,7.285,0,0,0-2.379,2.449,1.18,1.18,0,0,0-.252.7h0c-1,.777-5.233.317-5.233.317s-3.452,1.855-4.707,1.132-8.79,5.05-8.79,5.05-1.987.1-2.092.929c0,0-2.51,1.856-4.4,1.856s-3.035,2.369-3.035,2.369a34.022,34.022,0,0,1-4.185,1.649c-1.048.206-2.825,1.237-2.3,1.649s-.105,1.339-1.048,2.062-2.408,4.441-1.15,4.945,4.707,1.548,5.65,2.062a2.049,2.049,0,0,0,1.172.219,3.009,3.009,0,0,0,1.338-.219l.147-.181a9.432,9.432,0,0,0,4.373,2.036c2.427.241,7.644,1.231,9.854,1.659v.409c-.019,3.851.162,7.841.908,9.062,1.57,2.579,1.777,22.777,1.777,22.777s4.917.723,6.593,2.268c1.592,1.459,9.612,4.123,11.195.663l.5.216c4.077,1.76,9.488,4.266,10.109,5.392,1,1.856,8.223,4.948,8.223,4.948s4.71.1,3.347,4.441,9.039,14.724,9.039,14.724a2.847,2.847,0,0,0,.6,1.817,2.973,2.973,0,0,0,.446.45,8.856,8.856,0,0,0,3.223,1.155,6.438,6.438,0,0,1,.637,1.732c-.054.12.452.568,1.118,1.151h0a23.527,23.527,0,0,0,1.8,3.27h0a2.708,2.708,0,0,0,.933.936c1.019.412,11.638,6.7,13.628,6.905,1.85.194,5.609,1.1,8.991-1.526l-.545,4.4-.182,1.459s5.338,2.163,7.535,2.163,9.625,3.5,9.625,3.5,4.917,1.031,8.163-1.132C303.792,429.943,303.311,428.471,302.177,427.339Zm-33.76-47.793c-.525,1.132-.185,3.194.064,3.194a3.319,3.319,0,0,1,.774,3.5c-.627,1.855,4.08,18.755,6.172,21.023a.48.48,0,0,1-.038.155c-.153.688-.592,3.489,2.341,3.657h.334c.223,1.764.557,4.539.761,6.842-.471-1.367-2.29-2.753-4.105-3.844a36.3,36.3,0,0,0-4.21-2.138s-5.86-1.389-7.115-2.538a38.945,38.945,0,0,0-5-3.207h0c-.589-.53-1.252-1.126-1.876-1.7.035-.241.057-.495.07-.764a12.182,12.182,0,0,0-.554-1.586,3.084,3.084,0,0,0-.911-1.313c-.834-.514-3.663-11.13-3.663-12.37a36.47,36.47,0,0,0-2.4-8.142,21.042,21.042,0,0,1-1.36-3.616,87.852,87.852,0,0,0,18.415.634C266.1,377.379,268.924,378.41,268.417,379.546ZM194.739,331.93v.121l-.554-.136C194.528,331.93,194.739,331.93,194.739,331.93ZM224.944,316.2v.574l-.108-.111c-.089-.1-.172-.2-.258-.3A2.866,2.866,0,0,0,224.944,316.2Zm10.239,21.692c-.105-.606-.162-.952-.162-.952l.038-.58Zm-48.41-7.317a3.057,3.057,0,0,1,.682-.146,1.693,1.693,0,0,1,.583.159c.245.114.5.222.758.317l-1.825-.317a1.014,1.014,0,0,0-.194-.009Z" transform="translate(-103.716 -227.27)" fill="url(#linear-gradient-2)"/>
      <path id="Tracé_1421" data-name="Tracé 1421" d="M414.17,643.866a39.514,39.514,0,0,1,2,4.64c-.1.308,4.516,3.987,4.516,3.987l5.032-3.578-.513-2.455s-5.647-5.075-6.051-5.655S414.17,643.866,414.17,643.866Z" transform="translate(-269.161 -466.13)" fill="#a1616a"/>
      <path id="Tracé_1422" data-name="Tracé 1422" d="M449.48,667.288c-3.5,3.375-7.6,2.35-9.555,2.147s-12.373-6.445-13.376-6.854a2.644,2.644,0,0,1-.914-.926h0a23.88,23.88,0,0,1-1.764-3.248c.07.019,3.487.99,4.351,0,0,0,1.436-1.757,1.745-1.757s.022-3.08.022-3.08a40.942,40.942,0,0,1,4.908,3.172c1.233,1.113,6.981,2.506,6.981,2.506a35.488,35.488,0,0,1,4.14,2.122C448.753,663.035,451.467,665.369,449.48,667.288Z" transform="translate(-275.772 -474.889)" fill="#67647e"/>
      <path id="Tracé_1423" data-name="Tracé 1423" d="M453.255,684.1c-3.5,3.375-7.6,2.35-9.555,2.147s-12.373-6.445-13.376-6.854a2.645,2.645,0,0,1-.914-.926c1.217-.723,9.153,4.3,11.376,5.224s7.841.409,11.026-.92c1.592-.663-.022-2.7-2.029-4.58C452.529,679.846,455.243,682.18,453.255,684.1Z" transform="translate(-279.547 -491.7)" opacity="0.1"/>
      <path id="Tracé_1424" data-name="Tracé 1424" d="M503,660.076s1.465,10.943,1.092,12.37,9.179-4.91,9.179-4.91-3.341-6.858-2.363-8.434S503,660.076,503,660.076Z" transform="translate(-329.7 -478.315)" fill="#a1616a"/>
      <path id="Tracé_1425" data-name="Tracé 1425" d="M371.487,551.224s-5.956,1.738-9.236,1.532c-2.866-.178-2.449-2.943-2.3-3.629.022-.1.038-.155.038-.155-2.054-2.249-6.688-19.031-6.051-20.864a3.3,3.3,0,0,0-.758-3.489c-.245,0-.577-2.046-.064-3.172s-2.258-2.147-2.258-2.147a84.661,84.661,0,0,1-18.074-.634,20.792,20.792,0,0,0,1.334,3.591,36.431,36.431,0,0,1,2.363,8.082c0,1.227,2.771,11.761,3.593,12.272a3.065,3.065,0,0,1,.895,1.3,12.383,12.383,0,0,1,.545,1.564c-.319,6.851-8.115,4.193-9.236,3.273a2.8,2.8,0,0,1-1.026-2.252s-10.192-10.305-8.857-14.6-3.287-4.4-3.287-4.4-7.083-3.077-8.07-4.916c-.608-1.132-5.924-3.619-9.924-5.367-2.507-1.094-4.5-1.9-4.5-1.9l1.666-5.938,1.322-4.691,2.471-.926,7.892-2.947,14.189-1.944,1.3.168,13.781,1.776s20.128,5.725,22.183,6.629,3.185,9.833,3.185,9.833,4.312,14.832,4.109,16.782,1.436,7.356,1.436,7.356,0,6.118.7,6.534h.022C371.586,548.259,371.487,551.224,371.487,551.224Z" transform="translate(-189.049 -369.257)" fill="#4c4981"/>
      <path id="Tracé_1426" data-name="Tracé 1426" d="M408.44,545.9a84.659,84.659,0,0,1-18.074-.634c-.618-1.932-9.236-7.251-9.236-7.251C388.2,536.279,408.44,545.9,408.44,545.9Z" transform="translate(-246.644 -395.841)" opacity="0.1"/>
      <path id="Tracé_1427" data-name="Tracé 1427" d="M416.842,642.5c-.318,6.851-8.115,4.193-9.236,3.273a2.878,2.878,0,0,1-.436-.447c2.729,1,7.564,1.773,9.137-4.39A12.379,12.379,0,0,1,416.842,642.5Z" transform="translate(-264.39 -466.265)" fill="#444053"/>
      <path id="Tracé_1428" data-name="Tracé 1428" d="M506.77,656.856s-5.956,1.738-9.236,1.532c-2.866-.178-2.449-2.943-2.3-3.629,3.016-.1,8.207-.378,10.9-1.189h.022C506.869,653.89,506.77,656.856,506.77,656.856Z" transform="translate(-324.332 -474.889)" fill="#444053"/>
      <path id="Tracé_1429" data-name="Tracé 1429" d="M416.842,642.5c-.318,6.851-8.115,4.193-9.236,3.273a2.878,2.878,0,0,1-.436-.447c2.729,1,7.564,1.773,9.137-4.39A12.379,12.379,0,0,1,416.842,642.5Z" transform="translate(-264.39 -466.265)" opacity="0.1"/>
      <path id="Tracé_1430" data-name="Tracé 1430" d="M506.77,656.856s-5.956,1.738-9.236,1.532c-2.866-.178-2.449-2.943-2.3-3.629,3.016-.1,8.207-.378,10.9-1.189h.022C506.869,653.89,506.77,656.856,506.77,656.856Z" transform="translate(-324.332 -474.889)" opacity="0.1"/>
      <path id="Tracé_1431" data-name="Tracé 1431" d="M524.622,696.194c-3.185,2.147-8.01,1.126-8.01,1.126s-7.29-3.489-9.446-3.489-7.4-2.147-7.4-2.147l.175-1.446.854-6.93s8-.2,8.319-.92c0,0,1.44-3.524,1.952-2.22s8.217,10.508,10.166,10.508a5.907,5.907,0,0,1,3.478,1.8C525.819,693.609,526.278,695.072,524.622,696.194Z" transform="translate(-327.498 -492.852)" fill="#67647e"/>
      <path id="Tracé_1432" data-name="Tracé 1432" d="M480.034,540.75s-6.688,4.193-4.825,5.113S480.034,540.75,480.034,540.75Z" transform="translate(-310.536 -397.854)" opacity="0.1"/>
      <path id="Tracé_1433" data-name="Tracé 1433" d="M491.041,566.22s-5.752,5.44-3.6,5.582S491.041,566.22,491.041,566.22Z" transform="translate(-318.769 -415.245)" opacity="0.1"/>
      <path id="Tracé_1434" data-name="Tracé 1434" d="M514.7,620.72s-2.9,5.481-1.822,6.414S514.7,620.72,514.7,620.72Z" transform="translate(-336.27 -452.458)" opacity="0.1"/>
      <path id="Tracé_1435" data-name="Tracé 1435" d="M401.8,630.4c1.026,1.024-9.758-3.375-7.293-3.581S401.8,630.4,401.8,630.4Z" transform="translate(-255.508 -456.62)" opacity="0.1"/>
      <path id="Tracé_1436" data-name="Tracé 1436" d="M312.659,366.394l-.341-.051c-1.274-.2-5.908-.92-10.061-1.818-1.013-.219-1.994-.447-2.9-.682-3.185-.831-5.316-1.729-3.956-2.461a7.249,7.249,0,0,0,3.252-4.266q.073-.225.134-.438a11.239,11.239,0,0,0,.414-2.354s11.606-4.092,9.344,0a3.867,3.867,0,0,0,.685,4.793,9.018,9.018,0,0,0,2.5,1.855Z" transform="translate(-187.938 -269.318)" fill="#a1616a"/>
      <path id="Tracé_1437" data-name="Tracé 1437" d="M299.561,386.29s4.14,2.966,8.389.511,9.787,21.686,9.787,21.686l5.752,14.112s3.726,3.07-.911,4.4-14.921-1.329-17.533,2.557-7.542,4.5-8.061,4.5-2.462-14.625-2.462-14.625L294,398.251Z" transform="translate(-187.264 -292.386)" opacity="0.1"/>
      <path id="Tracé_1438" data-name="Tracé 1438" d="M322,424.4c-4.637,1.329-14.924-1.329-17.517,2.557a10.044,10.044,0,0,1-4.421,3.543,11.65,11.65,0,0,1-3.643.952c-.067,0-.162-.27-.277-.733-.723-2.959-2.185-13.893-2.185-13.893l-.506-21.172,4.879-10.527.666-1.44a8.8,8.8,0,0,0,2.115,1.025,7.48,7.48,0,0,0,6.277-.511c1.245-.72,2.6.847,3.9,3.426,3.118,6.2,5.886,18.257,5.886,18.257L322.923,420a4.992,4.992,0,0,1,.392.374C324.114,421.235,325.646,423.357,322,424.4Z" transform="translate(-186.889 -290.611)" fill="#f3f5f9"/>
      <path id="Tracé_1439" data-name="Tracé 1439" d="M299.875,412.81a26.536,26.536,0,0,1,.137,5.392,62.473,62.473,0,0,1-.955,7.612,2.53,2.53,0,0,1-.124.463c-2.506-1.094-4.5-1.9-4.5-1.9l1.656-5.947c-.723-2.959-2.185-13.893-2.185-13.893l-.506-21.172,4.879-10.527c-3.185-.831-5.316-1.729-3.956-2.461a7.512,7.512,0,0,0,3.385-4.7,17.191,17.191,0,0,0,2.917,3.127l.064.054.369,3.568.115,1.1.236,2.277s-1.131,26.9-1.952,28.432-.411,4.5.318,7.977C299.808,412.4,299.843,412.6,299.875,412.81Z" transform="translate(-186.855 -278.306)" opacity="0.1"/>
      <path id="Tracé_1440" data-name="Tracé 1440" d="M253.643,397.917c.72,3.489.1,9.2-.72,13.6s-9.555,1.535-11.192,0-6.472-2.249-6.472-2.249-.2-20.049-1.745-22.606c-.733-1.212-.908-5.17-.889-8.992,0-3.435.185-6.759.248-7.888.016-.26.022-.4.022-.4s-6.688-11.251-6.57-12.069,2.054-.92,2.054-.92,7.392-5.728,8.625-5.012,4.621-1.126,4.621-1.126,4.3.485,5.182-.339a.449.449,0,0,0,.159-.377c-.1-1.31,4.376-4.1,4.516-4.19-3.774,3.381,2.328,8.589,3.019,9.16l.064.054.72,6.943s-1.131,26.9-1.952,28.432S252.924,394.441,253.643,397.917Z" transform="translate(-141.142 -264.432)" fill="#6c63ff"/>
      <ellipse id="Ellipse_314" data-name="Ellipse 314" cx="0.513" cy="0.511" rx="0.513" ry="0.511" transform="translate(111.59 103.756)" fill="#444053"/>
      <path id="Tracé_1441" data-name="Tracé 1441" d="M297.695,355.773l-3.121,3.007L290,351.167a.459.459,0,0,0,.159-.377c-.1-1.31,4.376-4.1,4.513-4.19C290.9,349.994,297.007,355.2,297.695,355.773Z" transform="translate(-184.538 -265.285)" opacity="0.1"/>
      <ellipse id="Ellipse_315" data-name="Ellipse 315" cx="0.513" cy="0.511" rx="0.513" ry="0.511" transform="translate(110.565 120.119)" opacity="0.1"/>
      <ellipse id="Ellipse_316" data-name="Ellipse 316" cx="0.513" cy="0.511" rx="0.513" ry="0.511" transform="translate(110.565 119.913)" fill="#444053"/>
      <path id="Tracé_1442" data-name="Tracé 1442" d="M298.328,354.483l-3.121,3.007-4.577-7.612a.45.45,0,0,0,.159-.377c-.1-1.31,4.376-4.1,4.516-4.19C291.535,348.7,297.637,353.912,298.328,354.483Z" transform="translate(-184.967 -264.404)" fill="#6c63ff"/>
      <path id="Tracé_1443" data-name="Tracé 1443" d="M361.024,411.391c-2.567,1.126-19.412-1.84-21.874-2.556s-6.051-6.239-4.315-10.229-.618-7.888-.618-7.888-3.7-7.873-4.519-9.408a69.84,69.84,0,0,1-2.774-6.75.633.633,0,0,1,.146-.469,17.969,17.969,0,0,1,3.242-2.8c.726.26.815-1.808.787-3.327-.016-.85-.067-1.529-.067-1.529s.341.346.9.815c.2.171.436.358.691.552a10.717,10.717,0,0,0,3.242,1.776c2.465.723,5.956,4.076,5.956,4.076l-1.029,15.71s2.363,14.771,4.828,17.635,9.873,2.76,12.322,2.76A3.1,3.1,0,0,1,361.024,411.391Z" transform="translate(-209.699 -278.825)" opacity="0.1"/>
      <path id="Tracé_1444" data-name="Tracé 1444" d="M361.664,409.481c-2.567,1.123-19.409-1.843-21.874-2.56s-6.051-6.239-4.312-10.226-.618-7.876-.618-7.876-3.7-7.876-4.519-9.411-2.532-6-2.771-6.75a.588.588,0,0,1,.147-.466,17.782,17.782,0,0,1,3.242-2.807c.726.263.815-1.8.787-3.324-.016-.853-.067-1.532-.067-1.532s.341.346.895.818c.2.168.436.358.694.552a10.623,10.623,0,0,0,3.236,1.76c2.465.726,5.956,4.079,5.956,4.079l-1.026,15.707s2.363,14.771,4.825,17.635,9.873,2.763,12.325,2.763A3.084,3.084,0,0,1,361.664,409.481Z" transform="translate(-210.139 -277.528)" fill="#6c63ff"/>
      <path id="Tracé_1445" data-name="Tracé 1445" d="M334.492,365.82s-.1.542-.261,1.37c-.551,2.807-1.869,8.941-2.822,8.7-.682-.171-1.834-1.373-2.729-2.411a17.888,17.888,0,0,1,3.242-2.807c.726.263.815-1.8.787-3.324l.831-.714Z" transform="translate(-210.898 -278.409)" opacity="0.1"/>
      <path id="Tracé_1446" data-name="Tracé 1446" d="M333.849,364.53s-.1.542-.258,1.37c-.554,2.807-1.873,8.941-2.822,8.7-.682-.171-1.835-1.373-2.729-2.411a17.783,17.783,0,0,1,3.242-2.807c.726.263.815-1.8.787-3.324l.828-.714Z" transform="translate(-210.462 -277.528)" fill="#6c63ff"/>
      <path id="Tracé_1447" data-name="Tracé 1447" d="M262.854,329.83v10.378l-2.755,5.535h0l-.086.174-7.293-.479-2.8-.187-6.507-.428V332.412l6.507.184,2.911.082,7.357.206Z" transform="translate(-139.887 -227.213)" fill="#f86d70"/>
      <path id="Tracé_1448" data-name="Tracé 1448" d="M298.565,331.76v9.766l-.672,1.351h0l-.691,1.386h0l-1.392,2.8.156-10.378.032-2.093,1.322-1.456v0l.576-.634Z" transform="translate(-175.598 -228.531)" opacity="0.1"/>
      <path id="Tracé_1449" data-name="Tracé 1449" d="M262.006,319.545v3.622l-.373.593-.669,1.063-.592.939-1.306,2.074-.032,0-17.415-.891v-3.575l.041-.048,2.08-2.243.755-.809,1.36-1.469Z" transform="translate(-138.667 -219.682)" fill="#f86d70"/>
      <path id="Tracé_1450" data-name="Tracé 1450" d="M259.067,333.992v3.575l-17.447-.894V333.1l.041-.048Z" transform="translate(-138.667 -229.412)" opacity="0.1"/>
      <path id="Tracé_1451" data-name="Tracé 1451" d="M299.34,321.15v3.622l-2.94,4.669v-3.575Z" transform="translate(-176 -221.286)" opacity="0.15"/>
      <path id="Tracé_1452" data-name="Tracé 1452" d="M265.507,324.372l0,2.436v1.177l0,9.2h0l-.691,1.386.1-9.652.016-1.478v0l.026-2.179-16.673-1.025.755-.809Z" transform="translate(-143.206 -222.843)" fill="#3f3d56"/>
      <path id="Tracé_1453" data-name="Tracé 1453" d="M267.929,326.78l-1.169,2.528-.01,1.288-.108,12.76-2.8-.187V329.14l1.5-2.36Z" transform="translate(-153.81 -225.13)" fill="#3f3d56"/>
      <path id="Tracé_1454" data-name="Tracé 1454" d="M298.932,401.811a3.69,3.69,0,0,1-2.089.073.826.826,0,0,1-.366-.168.922.922,0,0,1-.226-.447,3.451,3.451,0,0,1-.2-1.072,1.178,1.178,0,0,1,.446-.952,1.118,1.118,0,0,0,.169-.127.682.682,0,0,0,.134-.266c.2-.606.6-1.247,1.233-1.345a2.019,2.019,0,0,1,1.573.7l.991.841a1.566,1.566,0,0,1,2.914-.041,5.524,5.524,0,0,1,2.2-1.5.69.69,0,0,1,.58-.025.7.7,0,0,1,.233.317,4.741,4.741,0,0,1,.427,1.871.319.319,0,0,1,.382.133.839.839,0,0,1,.127.412,5.369,5.369,0,0,1,.041.679,1.009,1.009,0,0,1-.182.679,1.127,1.127,0,0,1-.86.266.345.345,0,0,1-.089.511,1,1,0,0,1-.58.114,3.977,3.977,0,0,1-2.229-.457c-.255-.168-.465-.393-.72-.558a3.486,3.486,0,0,0-2.124-.4C300.065,401.066,299.537,401.605,298.932,401.811Z" transform="translate(-188.66 -299.99)" fill="#3f3d56"/>
      <path id="Tracé_1455" data-name="Tracé 1455" d="M288.975,410.706s-6.43.891-7.325,4.758l1.344-.2.955,1.687s1-3.775,3.936-4.669a31.606,31.606,0,0,1,3.987-1.04s2.045.495,3.889,6.4l1.048-1.44,1.844.4s-1.347-4.618-4.984-5.906Z" transform="translate(-178.847 -309.054)" fill="#3f3d56"/>
      <path id="Tracé_1456" data-name="Tracé 1456" d="M331.185,446.178s-5.137-1.021-6.574-3.273-11.217-4.193-10.026-1.84,10.026,10.048,10.026,10.048l3.822,5.459,5.1-1.291,2.153-4.168Z" transform="translate(-201.224 -329.056)" fill="#a1616a"/>
      <path id="Tracé_1457" data-name="Tracé 1457" d="M328.77,477.89s4.975,1.84,5.733,4.295S328.77,477.89,328.77,477.89Z" transform="translate(-210.96 -354.932)" opacity="0.1"/>
      <path id="Tracé_1458" data-name="Tracé 1458" d="M319.174,486.9s-.452,2.557,5.784,2.35Z" transform="translate(-204.415 -361.084)" opacity="0.1"/>
      <path id="Tracé_1459" data-name="Tracé 1459" d="M195.014,383.273l-2.258-.2s-2.465,1.84-4.316,1.84-2.978,2.354-2.978,2.354a33.445,33.445,0,0,1-4.108,1.637c-1.029.206-2.771,1.228-2.258,1.637s-.1,1.329-1.026,2.046-2.363,4.4-1.131,4.907,4.621,1.535,5.545,2.046a2.561,2.561,0,0,0,2.054,0s5.44-7.057,8.214-5.725a17.8,17.8,0,0,0,6.574,1.329l2.981-6.239Z" transform="translate(-107.16 -290.187)" opacity="0.1"/>
      <path id="Tracé_1460" data-name="Tracé 1460" d="M366.209,419.787a2.745,2.745,0,0,1-1.911,1.326,14.57,14.57,0,0,1-5.978-.549s10.344-3.273.382-11.232h2.669l.892-.336-.408-2.119-.586-19.107,2.156-.511s1.736,12.58,2.153,14.115a68.5,68.5,0,0,1,.723,7.467,17.17,17.17,0,0,0,1.029,3.682C367.773,413.447,367.668,417.605,366.209,419.787Z" transform="translate(-231.098 -293.048)" fill="#6c63ff"/>
      <path id="Tracé_1461" data-name="Tracé 1461" d="M364.9,466.581a2.748,2.748,0,0,1-1.911,1.326,14.58,14.58,0,0,1-5.988-.549s10.344-3.273.382-11.232h2.672l.889-.336C362.414,458.369,364.711,462.958,364.9,466.581Z" transform="translate(-230.199 -339.842)" opacity="0.1"/>
      <path id="Tracé_1462" data-name="Tracé 1462" d="M366.209,466.581a2.745,2.745,0,0,1-1.911,1.326,14.57,14.57,0,0,1-5.978-.549s10.344-3.273.382-11.232h2.669l.892-.336C363.718,458.369,366.021,462.958,366.209,466.581Z" transform="translate(-231.098 -339.842)" fill="none"/>
      <path id="Tracé_1463" data-name="Tracé 1463" d="M366.209,466.581a2.745,2.745,0,0,1-1.911,1.326,14.57,14.57,0,0,1-5.978-.549s10.344-3.273.382-11.232h2.669l.892-.336C363.718,458.369,366.021,462.958,366.209,466.581Z" transform="translate(-231.098 -339.842)" fill="#6c63ff"/>
      <path id="Tracé_1464" data-name="Tracé 1464" d="M317.087,359.091a9.379,9.379,0,0,1-10.577-2.014q.073-.225.134-.438a11.24,11.24,0,0,0,.414-2.354s11.606-4.092,9.344,0A3.882,3.882,0,0,0,317.087,359.091Z" transform="translate(-195.789 -269.291)" opacity="0.1"/>
      <path id="Tracé_1465" data-name="Tracé 1465" d="M316.922,325.323v.089a8.152,8.152,0,0,1-.051.9c-.032.295-.073.561-.127.837a9.361,9.361,0,0,1-18.007,1.2c-.061-.181-.118-.362-.169-.546a9.235,9.235,0,0,1-.338-2.48,5.2,5.2,0,0,1,.025-.634,9.346,9.346,0,0,1,18.667.634Z" transform="translate(-190.146 -244.408)" fill="#a1616a"/>
      <path id="Tracé_1466" data-name="Tracé 1466" d="M316.963,325.392a4.152,4.152,0,0,0-.051.9,3.518,3.518,0,0,1-.026.485,1.39,1.39,0,0,1-.1.352,1.752,1.752,0,0,1-2.424.885,2.621,2.621,0,0,1-.729-.952c-.863-1.586-2.064-3.435-3.952-3.467a8.81,8.81,0,0,0-2.344.52,2.465,2.465,0,0,1-2.284-.317c-.446-.406-.656-1.1-1.255-1.243s-1.153.406-1.427.952a2.837,2.837,0,0,1-1.048,1.443c-.248.121-.538.155-.78.285-1.118.612-.605,2.747-1.764,3.093l-.111.025-.057-.571-.319-3.121a9.346,9.346,0,0,1,18.667.634Z" transform="translate(-190.187 -244.388)" opacity="0.1"/>
      <path id="Tracé_1467" data-name="Tracé 1467" d="M297.028,295.516a3.832,3.832,0,0,0-2.487,2.293,9.022,9.022,0,0,0-.051,1.5,11.933,11.933,0,0,1-.841,2.909,3.229,3.229,0,0,0,.2,2.915c.194.257.449.469.621.739a3,3,0,0,1,.36,1.354l.506,5.034c1.306-.241.723-2.49,1.876-3.118.242-.13.532-.168.78-.289.554-.276.771-.907,1.048-1.443s.818-1.085,1.427-.952.809.837,1.255,1.24a2.548,2.548,0,0,0,2.287.317,9.569,9.569,0,0,1,2.341-.523c1.889.032,3.089,1.871,3.952,3.467a2.66,2.66,0,0,0,.729.952,1.764,1.764,0,0,0,2.526-1.24c.086-.6-.1-1.269.248-1.779s1.1-.634,1.688-.888c1.5-.688,1.965-2.553,1.717-4.123-.182-1.126-.637-2.29-.261-3.375.127-.374.347-.717.465-1.091a2.967,2.967,0,0,0-1.057-2.962,8.752,8.752,0,0,0-3.045-1.526,35.217,35.217,0,0,0-8.723-2.03c-1.306-.083-3.016-.488-4.051.317A13.424,13.424,0,0,1,297.028,295.516Z" transform="translate(-186.855 -228.493)" fill="#464353"/>
      <ellipse id="Ellipse_317" data-name="Ellipse 317" cx="0.513" cy="0.511" rx="0.513" ry="0.511" transform="translate(112.103 95.674)" opacity="0.1"/>
      <ellipse id="Ellipse_318" data-name="Ellipse 318" cx="0.513" cy="0.511" rx="0.513" ry="0.511" transform="translate(112.103 95.471)" fill="#444053"/>
      <ellipse id="Ellipse_319" data-name="Ellipse 319" cx="0.513" cy="0.511" rx="0.513" ry="0.511" transform="translate(108.819 127.789)" opacity="0.1"/>
      <ellipse id="Ellipse_320" data-name="Ellipse 320" cx="0.513" cy="0.511" rx="0.513" ry="0.511" transform="translate(108.819 127.586)" fill="#444053"/>
      <ellipse id="Ellipse_321" data-name="Ellipse 321" cx="0.513" cy="0.511" rx="0.513" ry="0.511" transform="translate(110.565 136.28)" opacity="0.1"/>
      <ellipse id="Ellipse_322" data-name="Ellipse 322" cx="0.513" cy="0.511" rx="0.513" ry="0.511" transform="translate(110.565 136.074)" fill="#444053"/>
      <path id="Tracé_1468" data-name="Tracé 1468" d="M361.975,419s1.131,7.638,0,8.97S361.975,419,361.975,419Z" transform="translate(-233.247 -314.721)" opacity="0.1"/>
      <path id="Tracé_1469" data-name="Tracé 1469" d="M255.556,463.68s-2.159,4.628,0,9.065,3.5,6.239,2.771,9.071S255.556,463.68,255.556,463.68Z" transform="translate(-160.41 -345.229)" opacity="0.1"/>
      <path id="Tracé_1470" data-name="Tracé 1470" d="M524.622,718.5c-3.185,2.147-8.01,1.126-8.01,1.126s-7.29-3.489-9.446-3.489-7.4-2.147-7.4-2.147l.175-1.446c2.131.409,6.969,1.38,7.526,1.856.72.615,9.555,3.581,9.555,3.581s6.013-.749,7.688-3.21C525.819,715.912,526.278,717.374,524.622,718.5Z" transform="translate(-327.498 -515.154)" opacity="0.1"/>
      <g id="Groupe_1628" data-name="Groupe 1628" transform="translate(106.535 69.662)" opacity="0.1">
        <path id="Tracé_1471" data-name="Tracé 1471" d="M296.82,310.2v.048A.248.248,0,0,0,296.82,310.2Z" transform="translate(-295.721 -309.86)"/>
        <path id="Tracé_1472" data-name="Tracé 1472" d="M315.469,329.832c-.589.273-1.331.368-1.688.888s-.162,1.18-.248,1.779a1.761,1.761,0,0,1-2.526,1.24,2.634,2.634,0,0,1-.729-.952c-.863-1.586-2.064-3.435-3.952-3.467a9.282,9.282,0,0,0-2.341.523,2.464,2.464,0,0,1-2.287-.317c-.446-.4-.656-1.1-1.255-1.24s-1.15.4-1.427.952-.494,1.167-1.048,1.443c-.248.121-.538.159-.78.289-1.15.634-.57,2.877-1.876,3.118l-.506-5.034a3,3,0,0,0-.36-1.354c-.172-.27-.427-.482-.621-.739a2.269,2.269,0,0,1-.42-1.082,2.615,2.615,0,0,0,.42,1.9c.194.257.449.469.621.739a3,3,0,0,1,.36,1.354l.506,5.034c1.306-.241.726-2.49,1.876-3.118.242-.13.532-.168.78-.289.554-.276.774-.907,1.048-1.443s.819-1.085,1.427-.952.809.837,1.255,1.24a2.547,2.547,0,0,0,2.287.317,9.569,9.569,0,0,1,2.341-.523c1.889.032,3.089,1.871,3.952,3.467a2.659,2.659,0,0,0,.729.952,1.764,1.764,0,0,0,2.526-1.24c.086-.6-.1-1.269.248-1.779s1.1-.634,1.688-.888a3.624,3.624,0,0,0,1.761-3.711A3.326,3.326,0,0,1,315.469,329.832Z" transform="translate(-293.369 -320.799)"/>
        <path id="Tracé_1473" data-name="Tracé 1473" d="M367.5,310.765c-.118.374-.338.717-.465,1.091a3.159,3.159,0,0,0-.105,1.361,2.562,2.562,0,0,1,.118-.527c.127-.374.347-.717.465-1.091a2.3,2.3,0,0,0,.061-1.069,2.388,2.388,0,0,1-.073.235Z" transform="translate(-343.483 -310.317)"/>
      </g>
      <path id="Tracé_1474" data-name="Tracé 1474" d="M255.008,432.619c-2.363-.514-7.908-2.144-7.908-2.144l-.99-.2c0-3.435.185-6.759.248-7.888h.022s4.726,1.532,5.854,2.35,4.621.615,4.621.615a15.919,15.919,0,0,1,9.962,5.319C271.337,435.677,257.372,433.136,255.008,432.619Z" transform="translate(-154.626 -317.036)" opacity="0.1"/>
      <path id="Tracé_1475" data-name="Tracé 1475" d="M199.834,419.766a1.361,1.361,0,0,0-.318,2.293,10.041,10.041,0,0,0,4.819,2.442c2.911.292,9.911,1.691,10.609,1.83l.108.025c.576.168,5.628,1.643,7.854,2.128,2.363.517,16.329,3.074,11.81-1.938a16,16,0,0,0-9.873-5.313,1.732,1.732,0,0,0-.182,0c-.529.025-3.5.127-4.542-.634a9.77,9.77,0,0,0-1.7-.841,32.592,32.592,0,0,0-6.943-2l-4.819-.809a1.4,1.4,0,0,0-.812.1Z" transform="translate(-122.535 -313.311)" fill="#a1616a"/>
      <path id="Tracé_1476" data-name="Tracé 1476" d="M193.724,383.273l-2.258-.2s-2.465,1.84-4.316,1.84-2.978,2.354-2.978,2.354a33.444,33.444,0,0,1-4.108,1.637c-1.029.206-2.771,1.228-2.258,1.637s-.1,1.329-1.026,2.046-2.363,4.4-1.131,4.907,4.621,1.535,5.545,2.046a2.561,2.561,0,0,0,2.054,0s5.44-7.057,8.214-5.725a17.849,17.849,0,0,0,6.586,1.329l2.981-6.239Z" transform="translate(-106.281 -290.187)" fill="#6c63ff"/>
      <path id="Tracé_1477" data-name="Tracé 1477" d="M240.353,502v26.552h42.658v4.441H240.8v19.031H236.34V502Z" transform="translate(-147.967 -371.395)" fill="#464353"/>
      <path id="Tracé_1478" data-name="Tracé 1478" d="M187.55,400.18h16.88l1.777,30.094h34.932a12.131,12.131,0,0,1,8.211,3.093,10.882,10.882,0,0,1,3.522,7.086v45.139h-4.443l.439-43.74a5.857,5.857,0,0,0-.14-1.354,7.148,7.148,0,0,0-3.1-4.59,5.79,5.79,0,0,0-2.962-.768H203.1l-2.229-31.42H187.55Z" transform="translate(-114.716 -301.87)" fill="#464353"/>
      <path id="Tracé_1479" data-name="Tracé 1479" d="M169.42,569.972c0,19.8,11.539,35.842,25.772,35.842s25.772-16.05,25.772-35.842-11.539-35.842-25.772-35.842S169.42,550.176,169.42,569.972Zm1.777-.479c0-17.331,10.147-31.382,22.66-31.382s22.664,14.051,22.664,31.382-10.147,31.382-22.664,31.382S171.2,586.824,171.2,569.493Z" transform="translate(-102.361 -393.333)" fill="#35323e"/>
      <ellipse id="Ellipse_323" data-name="Ellipse 323" cx="4" cy="5.976" rx="4" ry="5.976" transform="translate(86.165 171.77)" fill="#35323e"/>
      <ellipse id="Ellipse_324" data-name="Ellipse 324" cx="0.889" cy="1.77" rx="0.889" ry="1.77" transform="translate(88.388 176.197)" fill="#464353"/>
      <path id="Tracé_1480" data-name="Tracé 1480" d="M389.86,622.413v4.866a4.487,4.487,0,0,1,4.28-.051,8.046,8.046,0,0,1,4.437,5.2c1.077,3.711,3.185,11.013,5.058,17.876,2.666,9.719,7.555,7.5,7.555,7.5l33.992,2.436,14.443-7.3V648.5H423.187s-8.443,3.1-12,4.441-2.229-1.329-6.914-18.026S389.86,622.413,389.86,622.413Z" transform="translate(-252.593 -453.295)" fill="#464353"/>
      <path id="Tracé_1481" data-name="Tracé 1481" d="M416.33,639.67l33.992,2.433,14.443-7.3-35.549-.441Z" transform="translate(-257.734 -435.151)" opacity="0.1"/>
    </g>
  </g>
</svg>
